HIERARCHY
ROOT root
{
	OFFSET	0	13.1	24.9
	CHANNELS 6  Xposition Yposition Zposition Xrotation Yrotation Zrotation
	JOINT spine_1
	{
		OFFSET	0	9.99999	0
		CHANNELS 3  Xrotation Yrotation Zrotation
		JOINT spine_2
		{
			OFFSET	0	112	-10
			CHANNELS 3  Xrotation Yrotation Zrotation
			JOINT spine_3
			{
				OFFSET	0	206.5	19.3
				CHANNELS 3  Xrotation Yrotation Zrotation
				JOINT spine_4
				{
					OFFSET	0	110.4	14.6
					CHANNELS 3  Xrotation Yrotation Zrotation
					JOINT neck_1
					{
						OFFSET	0	71.8	-50.3
						CHANNELS 3  Xrotation Yrotation Zrotation
						JOINT neck_2
						{
							OFFSET	0	86.2	-25.8
							CHANNELS 3  Xrotation Yrotation Zrotation
							JOINT head_ee
							{
								OFFSET	0	179.8	-8.7
								CHANNELS 3  Xrotation Yrotation Zrotation
								End Site
								{
									OFFSET	1	0	0
								}
							}
						}
					}
					JOINT left_clavicle
					{
						OFFSET	-43.2	22.4	-70.8
						CHANNELS 3  Xrotation Yrotation Zrotation
						JOINT left_shoulder
						{
							OFFSET	-93.9	-5.79999	48.7
							CHANNELS 3  Xrotation Yrotation Zrotation
							JOINT left_elbow
							{
								OFFSET	-291.4	-30.8	15.2
								CHANNELS 3  Xrotation Yrotation Zrotation
								JOINT left_lowarm_twist
								{
									OFFSET	-110.7	-3.89999	13.6
									CHANNELS 3  Xrotation Yrotation Zrotation
									JOINT left_hand
									{
										OFFSET	-110.7	-3.89999	13.6
										CHANNELS 3  Xrotation Yrotation Zrotation
										JOINT left_ee
										{
											OFFSET	-80.8	-5.10001	12.1
											CHANNELS 3  Xrotation Yrotation Zrotation
											End Site
											{
												OFFSET	1	0	0
											}
										}
									}
								}
							}
						}
					}
					JOINT right_clavicle
					{
						OFFSET	43.2	22.4	-70.8
						CHANNELS 3  Xrotation Yrotation Zrotation
						JOINT right_shoulder
						{
							OFFSET	93.9	-5.79999	48.7
							CHANNELS 3  Xrotation Yrotation Zrotation
							JOINT right_elbow
							{
								OFFSET	291.4	-30.8	15.2
								CHANNELS 3  Xrotation Yrotation Zrotation
								JOINT right_lowarm_twist
								{
									OFFSET	110.7	-3.89999	13.6
									CHANNELS 3  Xrotation Yrotation Zrotation
									JOINT right_hand
									{
										OFFSET	110.7	-3.89999	13.6
										CHANNELS 3  Xrotation Yrotation Zrotation
										JOINT right_ee
										{
											OFFSET	80.8	-5.10001	12.1
											CHANNELS 3  Xrotation Yrotation Zrotation
											End Site
											{
												OFFSET	1	0	0
											}
										}
									}
								}
							}
						}
					}
				}
			}
		}
	}
	JOINT left_hip
	{
		OFFSET	-82.8	-127.5	0.300001
		CHANNELS 3  Xrotation Yrotation Zrotation
		JOINT left_knee
		{
			OFFSET	-28.2	-396.7	2.2
			CHANNELS 3  Xrotation Yrotation Zrotation
			JOINT left_ankle
			{
				OFFSET	-11.7	-411.3	35.4
				CHANNELS 3  Xrotation Yrotation Zrotation
				JOINT left_toes
				{
					OFFSET	0	-60	-88.6
					CHANNELS 3  Xrotation Yrotation Zrotation
					JOINT left_foot_ee
					{
						OFFSET	-22.5	-16.5	-42.2
						CHANNELS 3  Xrotation Yrotation Zrotation
						End Site
						{
							OFFSET	1	0	0
						}
					}
				}
			}
		}
	}
	JOINT right_hip
	{
		OFFSET	82.8	-127.5	0.300001
		CHANNELS 3  Xrotation Yrotation Zrotation
		JOINT right_knee
		{
			OFFSET	28.2	-396.7	2.2
			CHANNELS 3  Xrotation Yrotation Zrotation
			JOINT right_ankle
			{
				OFFSET	11.7	-411.3	35.4
				CHANNELS 3  Xrotation Yrotation Zrotation
				JOINT right_toes
				{
					OFFSET	0	-60	-88.6
					CHANNELS 3  Xrotation Yrotation Zrotation
					JOINT right_foot_ee
					{
						OFFSET	22.5	-16.5	-42.2
						CHANNELS 3  Xrotation Yrotation Zrotation
						End Site
						{
							OFFSET	1	0	0
						}
					}
				}
			}
		}
	}
}
MOTION
Frames: 5
Frame Time: 0.02
3540.21 714.666 -1502.68 -13.0745 71.573 11.0849 0.784923 0.327907 -0.043502 0.784864 0.33001 -0.022548 0.784717 0.327995 0.042828 0.784866 0.330643 -0.00951087 -9.25869 14.4688 0.589847 -9.44697 26.7832 4.10931 -0.0 0.0 -0.0 6.12148 21.2107 11.3427 -12.1199 -30.1318 65.9186 2.31268 -48.876 1.05104 -34.2993 -2.3663 3.6219 -3.03173 28.7379 -5.13225 -0.0 0.0 -0.0 9.26788 -11.7226 -17.3285 -15.3971 15.7699 -58.7341 0.193772 5.4831 -0.00927891 13.2586 -0.275294 1.66753 6.80622 -11.9892 -58.8604 0.0 0.0 0.0 -1.4318 -14.722 0.416731 -0.056768 0.00233359 0.00839902 27.9987 0.478222 -3.68963 -25.835 0.0 0.0 -0.0 0.0 -0.0 10.0965 -13.837 5.9686 -2.35568 -0.0897998 -0.350341 14.1246 30.5271 2.51196 -9.58497 0.0 0.0 0.0 0.0 0.0 
3535.17 717.168 -1509.97 -12.7297 71.3283 10.8585 0.736455 0.401828 -0.0150649 0.736365 0.401972 0.0105355 0.736417 0.391966 0.089754 0.736631 0.401221 0.0267229 -9.35714 15.1086 0.84451 -9.57136 27.8287 4.549 -0.0 0.0 -0.0 6.04805 21.5478 11.2133 -13.5541 -29.9621 65.494 2.15634 -46.8824 0.935062 -33.4156 -2.27967 3.54879 -2.78925 28.7797 -3.80171 -0.0 0.0 -0.0 9.45723 -11.1522 -17.7315 -13.8811 16.2774 -59.8917 0.185473 5.24962 -0.00850279 13.0353 -0.273873 1.63904 6.78048 -12.3526 -58.6582 0.0 0.0 0.0 -1.64341 -15.3231 -0.423032 -0.654047 0.026378 0.0969045 26.6684 0.545023 -3.54058 -26.162 0.0 0.0 -0.0 0.0 -0.0 10.0927 -14.1274 5.41555 -3.84935 -0.139239 -0.574237 15.0015 30.3706 2.65044 -9.42666 0.0 0.0 0.0 0.0 0.0 
3530.78 716.761 -1518.79 -13.8239 71.4626 11.7708 0.784702 0.438143 0.06303 0.7846 0.433244 0.0907829 0.785277 0.406915 0.174249 0.785492 0.429327 0.107797 -8.90584 15.9455 0.234231 -9.10846 29.7631 4.05321 -0.0 0.0 -0.0 5.9323 22.4537 10.989 -14.4487 -29.2016 65.5713 2.03348 -45.2039 0.84661 -32.62 -2.20265 3.48184 -2.66779 28.8333 -3.11956 -0.0 0.0 -0.0 10.1479 -11.1545 -18.9998 -10.8193 17.3763 -61.2947 0.206699 5.84643 -0.010555 12.9853 -0.27354 1.63266 6.75083 -12.7001 -58.3972 0.0 0.0 0.0 -1.19132 -15.7519 -0.612393 -1.01002 0.0402685 0.149767 26.0739 1.09809 -3.46978 -26.0276 0.0 0.0 -0.0 0.0 -0.0 9.87128 -14.7555 5.27795 -5.04437 -0.174576 -0.754228 15.7645 30.4441 2.77702 -9.11251 0.0 0.0 0.0 0.0 0.0 
3524.81 717.544 -1523.63 -13.8344 71.9123 11.6066 0.814174 0.472028 0.0718619 0.814055 0.466498 0.101753 0.814875 0.43746 0.191321 0.815122 0.462185 0.11983 -8.06142 16.5191 -0.244421 -8.18552 31.0616 3.4845 -0.0 0.0 -0.0 6.24445 22.2585 11.4542 -15.2456 -28.9486 65.4818 1.81895 -42.0166 0.698582 -32.0649 -2.14947 3.4345 -2.5424 28.8759 -2.42366 -0.0 0.0 -0.0 10.6509 -9.57176 -20.1358 -7.76806 18.4679 -62.4416 0.246872 6.97243 -0.0150397 12.7739 -0.272068 1.60571 6.72211 -12.7353 -58.0376 0.0 0.0 0.0 -0.62882 -15.9884 -1.67925 -2.50999 0.095178 0.373412 25.4829 1.2529 -3.40124 -26.1995 0.0 0.0 -0.0 0.0 -0.0 9.22031 -13.8796 5.51654 -5.45623 -0.185884 -0.816423 15.8368 30.6015 2.79468 -8.95959 0.0 0.0 0.0 0.0 0.0 
3521.08 718.138 -1530.65 -15.0651 72.1335 13.2322 0.707307 0.484467 0.0864833 0.707184 0.477982 0.117137 0.708153 0.445312 0.209488 0.708403 0.472808 0.136529 -7.84586 17.121 -0.28761 -7.95446 32.1918 3.52133 -0.0 0.0 -0.0 6.32072 22.3318 11.56 -15.694 -28.1958 65.4166 1.63293 -38.9666 0.577751 -31.1416 -2.06205 3.35464 -2.4234 28.7182 -1.86585 -0.0 0.0 -0.0 10.9874 -8.13413 -20.9585 -5.99549 19.1254 -62.9621 0.239467 6.76526 -0.0141541 12.0319 -0.266117 1.51111 6.64954 -13.1346 -57.2524 0.0 0.0 0.0 -0.795176 -16.1074 -2.13998 -2.63475 0.0994804 0.392075 25.3409 1.40727 -3.38405 -26.1592 0.0 0.0 -0.0 0.0 -0.0 9.42018 -14.1999 4.34925 -5.71157 -0.192669 -0.855022 15.9194 30.6015 2.80804 -8.96196 0.0 0.0 0.0 0.0 0.0 
